<?xml version="1.0" encoding="UTF-8" standalone="no"?>
<!-- Created with Inkscape (http://www.inkscape.org/) -->

<svg
   xmlns:dc="http://purl.org/dc/elements/1.1/"
   xmlns:cc="http://creativecommons.org/ns#"
   xmlns:rdf="http://www.w3.org/1999/02/22-rdf-syntax-ns#"
   xmlns:svg="http://www.w3.org/2000/svg"
   xmlns="http://www.w3.org/2000/svg"
   xmlns:sodipodi="http://sodipodi.sourceforge.net/DTD/sodipodi-0.dtd"
   xmlns:inkscape="http://www.inkscape.org/namespaces/inkscape"
   width="500mm"
   height="500mm"
   viewBox="0 0 500 500"
   version="1.1"
   id="svg3861"
   inkscape:version="0.92.4 5da689c313, 2019-01-14"
   sodipodi:docname="evil.svg"
   inkscape:export-filename="/home/lawliet/Pictures/material/evil-96.png"
   inkscape:export-xdpi="4.8768001"
   inkscape:export-ydpi="4.8768001">
  <defs
     id="defs3855">
    <inkscape:perspective
       sodipodi:type="inkscape:persp3d"
       inkscape:vp_x="0 : 148.49999 : 1"
       inkscape:vp_y="0 : 999.99996 : 0"
       inkscape:vp_z="210 : 148.49999 : 1"
       inkscape:persp3d-origin="105 : 98.999996 : 1"
       id="perspective3932" />
    <meshgradient
       inkscape:collect="always"
       id="meshgradient4790"
       gradientUnits="userSpaceOnUse"
       x="103.97004"
       y="-110.43425">
      <meshrow
         id="meshrow4792">
        <meshpatch
           id="meshpatch4794">
          <stop
             path="c 83.259,-92.0877  218.249,-92.0877  301.508,0"
             style="stop-color:#ffffff;stop-opacity:1"
             id="stop4796" />
          <stop
             path="c 83.259,92.0877  83.259,241.391  0,333.479"
             style="stop-color:#0000ff;stop-opacity:1"
             id="stop4798" />
          <stop
             path="c -83.259,92.0877  -218.249,92.0877  -301.508,2.84217e-14"
             style="stop-color:#ffffff;stop-opacity:1"
             id="stop4800" />
          <stop
             path="c -83.259,-92.0877  -83.259,-241.391  -5.68434e-14,-333.479"
             style="stop-color:#0000ff;stop-opacity:1"
             id="stop4802" />
        </meshpatch>
      </meshrow>
    </meshgradient>
  </defs>
  <sodipodi:namedview
     id="base"
     pagecolor="#ffffff"
     bordercolor="#666666"
     borderopacity="1.0"
     inkscape:pageopacity="0.0"
     inkscape:pageshadow="2"
     inkscape:zoom="0.175"
     inkscape:cx="697.52871"
     inkscape:cy="941.70536"
     inkscape:document-units="mm"
     inkscape:current-layer="layer1"
     showgrid="false"
     inkscape:window-width="1364"
     inkscape:window-height="718"
     inkscape:window-x="0"
     inkscape:window-y="24"
     inkscape:window-maximized="0" />
  <metadata
     id="metadata3858">
    <rdf:RDF>
      <cc:Work
         rdf:about="">
        <dc:format>image/svg+xml</dc:format>
        <dc:type
           rdf:resource="http://purl.org/dc/dcmitype/StillImage" />
        <dc:title></dc:title>
      </cc:Work>
    </rdf:RDF>
  </metadata>
  <g
     inkscape:label="Layer 1"
     inkscape:groupmode="layer"
     id="layer1"
     transform="translate(0,203)">
    <path
       style="fill:url(#meshgradient4790);fill-opacity:1;stroke-width:2.98398161"
       id="path3863"
       sodipodi:type="arc"
       sodipodi:cx="254.72383"
       sodipodi:cy="56.305317"
       sodipodi:rx="213.19806"
       sodipodi:ry="235.80536"
       sodipodi:start="0.261379"
       sodipodi:end="5.6283318"
       d="M 460.68052,117.24048 A 213.19806,235.80536 0 0 1 247.83428,291.98752 213.19806,235.80536 0 0 1 45.638455,102.39832 213.19806,235.80536 0 0 1 166.66338,-158.4451 213.19806,235.80536 0 0 1 423.81913,-87.310301 L 254.72383,56.305317 Z" />
    <path
       sodipodi:type="star"
       style="fill:#ff6600;fill-opacity:0.68599033;stroke-width:0.26458332"
       id="path3868"
       sodipodi:sides="5"
       sodipodi:cx="48.191963"
       sodipodi:cy="107.25595"
       sodipodi:r1="8.4939585"
       sodipodi:r2="4.2469792"
       sodipodi:arg1="0.36397896"
       sodipodi:arg2="0.99229749"
       inkscape:flatsided="false"
       inkscape:rounded="0"
       inkscape:randomized="0"
       d="m 56.129463,110.27976 -5.615389,0.53212 -2.745102,4.92749 -2.241327,-5.17612 -5.534605,-1.08807 4.230173,-3.73113 -0.675472,-5.59996 4.855718,2.87015 5.11714,-2.37289 -1.229174,5.50498 z"
       inkscape:transform-center-x="1.116584"
       inkscape:transform-center-y="8.7760251"
       transform="matrix(8.5423466,0,0,12.797188,-336.51802,-1438.4045)" />
    <path
       sodipodi:type="star"
       style="fill:#ff7f2a;fill-opacity:0.65700483;stroke-width:0.26458332"
       id="path3870"
       sodipodi:sides="5"
       sodipodi:cx="71.626488"
       sodipodi:cy="100.45238"
       sodipodi:r1="6.0298748"
       sodipodi:r2="3.0149374"
       sodipodi:arg1="0.56192156"
       sodipodi:arg2="1.1902401"
       inkscape:flatsided="false"
       inkscape:rounded="0"
       inkscape:randomized="0"
       d="m 76.729166,103.66517 -3.982819,-0.41355 -2.598597,3.0465 -0.837445,-3.91568 -3.700405,-1.52999 3.465249,-2.006471 0.31162,-3.992088 2.979088,2.675614 3.892997,-0.937254 -1.624072,3.660089 z"
       inkscape:transform-center-x="6.701087"
       inkscape:transform-center-y="1.8802789"
       transform="matrix(14.664798,0,0,15.209192,-672.4475,-1642.7393)" />
    <path
       style="fill:#241c1c;fill-opacity:0.98550725;stroke-width:2.98398161"
       id="path3894"
       d="m 118.25765,81.192047 c 3.93931,4.638327 6.56137,10.361477 8.94211,16.422645 1.29127,2.471498 1.9142,5.507598 3.38184,7.839848 1.24787,1.98286 3.33986,3.29374 4.92978,4.74295 3.17881,4.69222 7.435,6.85133 11.60128,9.6671 4.28652,1.93731 8.07893,5.18198 12.27813,7.33464 3.5936,1.62326 7.4018,1.89333 11.17278,2.04092 4.92367,0.70147 8.3835,-0.76088 12.72196,-3.67597 8.62737,-5.79756 22.44917,-15.66301 -16.84413,12.57425 -4.8204,3.46397 4.13304,-3.66305 4.99801,-4.38973 2.74331,-2.90372 5.24792,-6.19988 7.8022,-9.38409 3.1866,-3.51849 5.52427,-7.60023 6.81799,-12.72948 1.38228,-6.4295 -0.97241,-7.03142 -4.88688,-10.00176 -4.29629,-1.934183 -8.12276,-5.129778 -12.27752,-7.449183 -2.4766,-0.373149 -4.01866,-2.800663 -6.03281,-4.282906 -0.95025,-0.698351 -1.98996,-1.176035 -2.96504,-1.816112 -3.3817,-2.960014 -7.16804,-4.423286 -11.17608,-5.095889 -4.9528,-0.266814 -9.58396,-2.721321 -14.38798,-4.076093 -4.45892,-1.094111 -9.01898,-1.149134 -13.54258,-1.251595 -0.74352,0.135539 -1.53912,0.03135 -2.23058,0.405442 -0.68151,0.371074 -2.39693,2.219896 -1.74712,1.763787 7.32878,-5.143949 14.46952,-10.724921 21.80864,-15.844575 0.69009,-0.480496 -1.22213,1.268169 -1.82976,1.908132 -2.51452,2.64659 -0.92715,1.080142 -3.45893,3.477092 -8.51757,6.269525 -17.03517,12.538935 -25.55273,18.808346 -0.60236,0.374185 -2.38622,1.554807 -1.80739,1.123593 7.37916,-5.50435 14.78582,-10.947846 22.21293,-16.344342 0.48218,-0.350212 -0.9422,0.755655 -1.37355,1.202912 -0.80935,0.839054 -1.80719,2.266481 -2.51435,3.230701 -8.30727,10.043052 -2.09311,2.761569 -26.487328,20.574922 -0.509222,0.372111 -1.145619,0.338756 -1.68955,0.618087 -0.488905,0.252246 -1.848397,1.295784 -1.391852,0.957881 23.42956,-17.297336 29.73356,-23.162963 21.6236,-15.705325 -1.87409,3.669821 -3.63442,7.174228 -6.28296,10.046902 0,0 -25.753049,13.397143 -25.753049,13.397143 v 0 c 2.83501,-3.05256 5.173211,-4.55765 6.330478,-9.506679 0.271893,-0.578463 0.368856,-1.379897 0.815812,-1.735204 8.229705,-6.542079 16.671019,-12.633375 25.058789,-18.833771 0.93546,-0.691043 3.8505,-2.494846 2.92194,-1.788589 -7.41263,5.638092 -14.8335,11.258573 -22.269327,16.845906 -0.486664,0.364804 0.947076,-0.786935 1.420628,-1.180091 1.06211,-1.268146 2.594789,-4.342101 3.676969,-5.183021 8.3734,-6.506535 16.91395,-12.649834 25.40017,-18.909125 0.5798,-0.427341 2.36887,-1.586387 1.79385,-1.149249 -7.30399,5.555662 -14.65657,11.004782 -21.98487,16.507173 1.81372,-1.329253 1.98504,-1.328631 3.64063,-3.073009 0.61845,-0.651442 1.10604,-1.518525 1.78649,-2.057501 9.65207,-7.64555 18.61143,-20.127573 30.33566,-20.4587 4.65203,0.171038 9.34751,0.448179 13.88913,1.854239 4.72688,1.557596 9.37909,3.547973 14.29581,3.865661 4.1781,1.0839 8.03616,3.098965 11.69569,5.933167 3.03645,1.92867 5.6681,4.693788 8.92927,6.034268 4.11376,2.632644 8.16054,5.410049 12.3516,7.835881 4.14406,3.266153 8.07177,6.954414 6.7349,13.955414 -0.97242,5.64351 -2.77165,10.65259 -6.25738,14.49262 -2.55125,3.2505 -5.24866,6.35165 -7.58966,9.84573 -1.58829,1.62714 -3.35626,3.16337 -5.09741,4.50553 -10.02913,7.73082 -19.86265,16.25431 -30.52705,22.58063 -4.45967,2.26542 -8.9199,3.20152 -13.71416,2.48056 -3.97802,-0.41483 -7.96032,-1.04824 -11.65298,-3.13928 -4.13343,-2.45264 -8.10721,-5.32218 -12.30663,-7.60462 -4.30046,-2.79031 -8.48634,-5.49132 -11.85912,-10.05148 -4.96137,-4.52794 -6.42887,-6.92542 -8.96849,-14.10968 -2.28905,-5.92346 -4.808721,-11.34695 -8.844692,-15.627454 0,0 23.935032,-18.419039 23.935032,-18.419039 z"
       inkscape:connector-curvature="0" />
    <path
       style="fill:#241c1c;fill-opacity:0.93719804;stroke-width:2.92358971"
       id="path3900"
       d="m 356.25498,-26.030749 c -1.49342,6.346654 -3.20434,12.590524 -4.62112,18.9736673 -1.38018,6.84881807 -4.52853,12.6836956 -7.08595,18.8800347 -1.57673,5.663955 -3.9648,10.505845 -7.19877,14.922354 -3.13217,4.220253 -5.66175,8.879534 -7.64683,14.03441 -2.16746,5.01793 -3.79649,10.334692 -6.10044,15.26058 -1.84361,3.849733 -4.9241,7.420434 -5.25574,12.088567 3.08482,1.749265 7.25868,1.449626 10.63452,1.588646 6.36179,0.153288 12.72543,0.10419 19.08774,0.04172 3.3146,-0.349175 6.76549,0.510739 10.02842,-0.523233 1.35258,-0.428378 2.63143,-1.155588 3.9495,-1.725522 1.20842,-0.817155 2.65659,-0.694155 3.90672,-1.324966 0.62426,-0.314761 2.32739,-1.683316 1.74047,-1.273264 -36.91466,25.795055 -27.08308,19.961745 -19.05356,12.790952 8.4578,-6.017602 16.8254,-12.23312 25.37329,-18.053198 1.20776,-0.822365 2.7144,-0.725436 3.9744,-1.417839 0.61146,-0.335621 2.33326,-1.621078 1.75189,-1.211971 -22.99328,16.192898 -29.19571,21.799732 -20.57715,14.161789 9.77425,-8.477111 4.54835,-4.056638 27.76208,-19.835425 0.68547,-0.465905 1.49374,-0.576388 2.22798,-0.909935 0.71898,-0.327277 2.79168,-1.542705 2.12961,-1.066059 -26.92248,19.360139 -28.53592,20.776825 -20.16804,13.845969 13.71919,-10.653509 54.48915,-38.658248 6.80497,-5.068066 -1.27451,0.898479 2.45989,-1.97786 3.65556,-3.02829 3.2803,-2.599383 5.96966,-6.002158 8.55157,-9.564516 2.24703,-4.000647 3.25869,-8.783734 2.98879,-13.613016 -1.25894,-6.357073 -6.26827,-9.482707 -10.25884,-13.09165 -3.54981,-4.188904 -7.96193,-5.947551 -12.42516,-7.956807 -3.64339,-2.4565815 -7.72037,-3.3721407 -11.42758,-5.6155707 -3.094,-2.0431177 -6.4425,-2.7964907 -9.88226,-3.268435 0,0 22.61447,-19.7331723 22.61447,-19.7331723 v 0 c 3.63432,0.720226 7.11049,1.909699 10.39487,4.027018 3.74058,1.885196 7.65769,3.207465 11.30474,5.3988926 4.67178,2.0568559 8.94627,4.8380177 12.72549,8.88515865 4.64462,4.21190885 9.86085,8.11239995 11.48246,15.40607775 0.79259,5.473001 -0.0792,10.898356 -2.02492,15.914096 -1.93193,4.079436 -5.1706,7.851187 -8.29504,10.533138 -8.97633,8.995526 -17.6821,13.524316 -29.0174,21.595547 -0.56436,0.402308 -2.2814,1.554369 -1.71945,1.147866 7.34166,-5.316439 14.69687,-10.604318 22.05939,-15.876777 0.586,-0.417959 -1.15248,0.877618 -1.72878,1.31789 -9.47976,8.837927 -3.04676,2.978362 -27.41809,19.912231 -1.3274,0.922429 -5.51815,3.15325 -4.21077,2.188615 16.53326,-12.199027 29.49288,-20.856258 19.65279,-14.258188 -0.53349,0.543034 -1.00737,1.191225 -1.60053,1.629723 -8.38989,6.206573 -16.83338,12.304001 -25.32721,18.290622 -0.58072,0.409638 -3.35038,1.486439 -3.93514,1.778586 -0.59602,0.29602 -2.29914,1.418991 -1.74587,1.015208 7.36872,-5.393476 14.79944,-10.656345 22.19914,-15.984563 -11.18996,8.345767 -21.56558,19.399533 -34.42967,23.305856 -4.6987,1.610959 -9.46811,1.384991 -14.31257,1.282022 -6.41321,-0.0022 -12.82852,0.115716 -19.24003,-0.10419 -4.64456,-0.326239 -10.36771,-0.139688 -12.99565,-5.716788 -0.58006,-5.440776 2.07492,-9.975927 4.69342,-14.086942 2.56376,-4.704715 4.08629,-9.933607 6.25399,-14.907141 2.02985,-5.368765 4.04598,-10.511331 7.313,-14.958613 3.14941,-4.28717 6.37714,-8.219126 7.59256,-14.074657 2.32918,-6.222594 5.69678,-11.703202 7.27355,-18.3459677 1.51707,-6.1545476 2.71383,-12.4214684 4.51136,-18.4650033 0,0 25.06382,-15.144887 25.06382,-15.144887 z"
       inkscape:connector-curvature="0" />
    <path
       style="fill:#000080;fill-opacity:0.72946858;stroke-width:2.71384358"
       id="path3902"
       d="m 215.70305,215.06543 c 3.86701,0.12932 7.73658,0.11572 11.60507,0.12816 1.15208,0.002 2.31412,0.17081 3.45595,0.005 1.09365,-0.15628 2.12447,-0.63581 3.18668,-0.95474 1.07057,-0.45966 2.17271,-0.84219 3.21114,-1.37907 3.24361,-1.67508 6.1917,-3.96406 9.45625,-5.60994 1.91949,-0.96727 3.91561,-1.75399 5.85675,-2.67131 5.87696,-3.55475 12.65727,-4.3421 19.26849,-4.95571 5.96453,-0.17404 10.58654,-4.15355 15.98608,-6.17935 0.84721,-0.37105 1.71788,-0.6848 2.54156,-1.11078 2.62304,-1.35811 1.68096,-1.28901 4.26601,-2.50579 2.20717,-1.03916 4.3741,-1.8483 6.51959,-3.06361 -7.20823,4.39463 -14.40016,8.81969 -21.62471,13.18369 -0.71541,0.43152 1.41111,-0.90159 2.09591,-1.38679 2.12263,-1.50476 3.97859,-3.5786 6.17041,-4.94725 8.64545,-5.39878 17.39584,-10.60506 26.09376,-15.90741 9.46839,-4.61113 8.09956,-4.03963 -18.85586,11.69059 -0.70553,0.41171 1.31659,-0.99225 1.91834,-1.56041 1.51835,-1.43503 2.68741,-3.28273 3.96895,-4.94477 12.04537,-14.23818 22.23926,-17.18653 36.7252,-17.78126 5.71893,0.40129 8.07708,-0.69208 12.9011,-3.50598 4.94962,-1.9374 9.8582,-3.7904 14.71078,-5.99372 1.33162,-0.76921 2.85854,-0.89742 4.25747,-1.439 0.59167,-0.22935 2.255,-1.1927 1.7089,-0.85885 -39.36965,24.08622 -27.74135,17.44055 -19.87168,11.74084 2.74711,-2.63564 6.05381,-4.39682 9.03163,-6.68308 2.76001,-1.44202 4.79089,-3.86432 7.22169,-5.77109 3.15288,-2.41648 4.94616,-5.61329 6.13223,-9.47375 0.5083,-4.03068 2.15292,-7.65297 3.45575,-11.41783 0.43799,-3.31108 2.21309,-5.89285 3.62878,-8.74999 0.65565,-1.46149 0.89827,-3.04246 1.15221,-4.62113 0,0 24.96949,-13.10656 24.96949,-13.10656 v 0 c -0.1674,1.78661 -0.32321,3.5802 -0.79232,5.31427 -1.09154,3.45312 -3.29212,5.0224 -3.77823,8.55111 -1.05407,3.87347 -3.23518,7.25292 -3.57163,11.33484 -0.93335,4.17577 -2.16377,8.16766 -5.33728,11.02731 -2.42877,2.49494 0.44048,-0.28143 -2.23869,1.79306 -1.74938,1.35403 -2.64711,3.69889 -4.96231,4.26914 -2.00881,1.44244 -1.02729,0.65663 -2.93762,2.36871 -1.98968,1.48455 -4.49935,2.11534 -6.09782,4.20629 -9.93287,8.70944 -21.57966,15.27538 -33.70069,19.79124 -4.82302,2.17059 -9.91127,3.58603 -14.58426,6.13454 -4.69542,2.32307 -8.4321,2.61261 -13.57933,2.52506 -2.52137,0.18556 -5.10817,0.2981 -7.55135,1.06721 -0.66872,0.20954 -2.5401,1.20688 -1.94452,0.82029 7.31585,-4.74037 14.75254,-9.26633 22.12887,-13.89933 -0.47703,0.30955 -0.95434,0.6212 -1.43143,0.93285 -1.87951,1.88457 -4.03077,6.08316 -5.79512,7.23333 -20.19833,13.16567 -17.5591,11.70758 -28.43745,17.39362 7.06251,-4.41725 14.11113,-8.85983 21.18756,-13.25153 0.74906,-0.46487 -1.5074,0.92139 -2.20437,1.46972 -1.37158,1.08139 -2.57068,2.39386 -3.92557,3.49849 -8.00451,6.52559 -25.79378,16.09345 -27.8678,17.36121 -4.46364,2.1736 -8.88487,4.44195 -13.41406,6.45213 -5.29093,2.50577 -10.31961,5.35948 -16.30365,5.42589 -6.57455,0.85468 -12.96698,2.30034 -18.82797,5.75316 -6.31371,2.98336 -12.14005,7.16911 -18.83922,9.10914 -6.2735,0.86197 -12.59879,0.33145 -18.91186,0.61495 0,0 22.57379,-17.46639 22.57379,-17.46639 z"
       inkscape:connector-curvature="0" />
    <path
       style="fill:#000080;fill-opacity:0.72946858;stroke-width:2.98398161"
       id="path3904"
       d="m 168.71215,220.13317 c 5.6166,-1.84955 11.37442,-2.78865 17.14602,-3.33837 4.90148,-0.4242 9.81462,-0.49716 14.72524,-0.52427 3.85154,-0.005 7.70305,0.005 11.55458,0.0207 3.00714,-0.12932 6.05528,0.44507 9.02806,-0.36688 1.63531,-0.44714 3.21916,-1.16455 4.83947,-1.69332 2.51278,-0.87552 5.07269,-1.38999 7.6472,-1.83308 0,0 -22.11037,21.37322 -22.11037,21.37322 v 0 c -2.51713,0.59412 -5.02713,1.2247 -7.5037,2.06405 -4.75482,1.44338 -9.51307,1.71439 -14.39103,1.48665 -3.8366,-0.007 -7.67321,-0.0417 -11.50983,-0.0314 -4.81869,0.0314 -9.64239,0.10419 -14.44681,0.62747 -5.75903,0.75254 -11.5079,1.81496 -17.04127,4.09006 0,0 22.06244,-21.87142 22.06244,-21.87142 z"
       inkscape:connector-curvature="0" />
    <path
       style="fill:#000080;fill-opacity:0.72946858;stroke-width:2.98398161"
       id="path3910"
       d="m 396.48486,115.29202 c -0.16254,6.15132 -0.10815,12.30871 -0.0871,18.46263 -0.025,5.89073 0.002,11.7816 0.0211,17.67224 0.31834,5.20074 -0.80023,9.8449 -2.83648,14.25818 -1.84749,3.67557 -4.53635,6.43305 -6.46442,10.00523 -1.3485,4.50698 -2.31515,8.80155 -4.56596,12.75594 -3.04439,4.22682 -6.57453,7.64294 -8.81153,12.71767 -1.18467,2.92438 -1.17056,6.33872 -2.34538,9.26852 -0.53152,1.32559 -1.78034,3.32295 -2.47387,4.4926 -8.98466,17.1662 -18.07519,19.3913 -34.53467,31.59033 39.77361,-32.07459 18.02067,-13.27488 9.68374,-3.71233 -2.79739,3.44697 -4.89726,7.66577 -7.39293,11.47608 -3.26634,4.11927 -7.18637,7.33725 -10.82367,10.9141 -10.40242,10.76015 -21.63188,22.0157 -34.68031,26.21855 -3.53708,0.73795 -7.13875,0.54824 -10.70785,0.5201 -4.39665,-0.0313 -8.79318,-0.0938 -13.18989,-0.0938 -5.15734,-0.0313 -10.31468,-0.0417 -15.47205,-0.0625 -5.2968,0.007 -10.59352,0.0313 -15.89029,0.0417 -4.5154,0.13969 -9.05299,-0.68793 -13.3538,1.36833 -3.83799,2.30523 -7.91388,2.82825 -12.0733,3.17284 -3.47187,0.18141 -7.12964,0.87866 -10.31569,-1.40626 -1.61664,-1.1608 -2.98782,-2.81325 -4.49324,-4.19942 -3.95747,-4.12602 -7.71444,-8.50669 -12.01598,-12.05842 -4.0305,-3.06821 -8.76109,-3.04027 -13.08823,-5.08277 -4.12579,-2.13002 -6.36809,-7.30827 -9.90313,-10.39356 -4.36384,-2.71268 -7.99225,-6.16538 -10.48042,-11.55584 -0.8914,-3.40914 -2.25011,-6.48454 -3.53919,-9.6552 0,0 24.03126,-17.73394 24.03126,-17.73394 v 0 c 1.31994,3.09426 2.80918,6.04782 3.56012,9.48229 2.25579,5.0422 6.05527,7.55008 9.88959,10.34521 3.11086,3.21975 5.4461,7.70495 9.37115,9.46841 4.57409,1.7149 9.48229,2.1956 13.46501,5.91056 4.21191,3.74425 8.0019,8.08854 12.01427,12.15036 0.89298,0.78173 2.95878,2.71528 4.07449,3.26042 3.06266,1.49651 6.52855,0.33041 9.67805,0.25953 4.08359,-0.61392 7.95317,-2.02729 11.84956,-3.68817 4.5419,-0.93285 9.13365,-0.54513 13.71828,-0.58891 5.26997,0.005 10.53993,0.0314 15.80997,0.0417 5.19648,-0.0313 10.39282,-0.0417 15.58931,-0.0313 4.40344,0.0313 8.80697,0.0417 13.21038,0.0521 3.4409,-0.0625 6.96868,-0.005 10.25572,-1.49985 8.5397,-4.66251 20.40891,-14.78216 -18.88407,14.64758 -0.65381,0.49094 1.31685,-0.96306 1.94028,-1.51527 1.60618,-1.42127 2.48794,-2.53924 3.95394,-4.21537 3.60317,-3.39736 6.95854,-7.25834 10.88066,-10.06972 1.11975,-1.70051 2.34501,-3.28752 3.46394,-4.96791 1.54008,-2.31369 0.95038,-2.05999 2.36829,-4.68501 0.46213,-0.85574 1.01448,-1.62442 1.52169,-2.43678 2.10018,-2.19633 3.96516,-4.70764 6.07517,-6.88489 9.69594,-10.00543 19.90921,-17.65891 31.41456,-25.03804 -7.04207,5.32029 -14.07622,10.65777 -21.12615,15.96068 -0.71041,0.53469 1.43444,-1.04418 2.10691,-1.65475 2.74077,-2.48713 4.79715,-5.81425 6.60028,-9.41111 0.40381,-0.79319 0.75289,-1.63807 1.21131,-2.38103 0.61925,-1.00476 1.91652,-2.21602 2.38847,-3.42488 0.88823,-2.27491 0.52162,-5.07087 1.37369,-7.36861 1.76951,-5.72283 4.78351,-9.85231 8.59775,-13.52589 2.74065,-3.90434 3.94813,-6.8659 4.64794,-12.11168 1.46824,-4.28457 4.09049,-6.9002 6.32158,-10.48925 2.49783,-3.27657 3.87275,-7.57562 3.668,-12.19778 0.0197,-5.89952 0.0475,-11.79912 0.0211,-17.69873 0.0211,-6.11577 0.0765,-12.23519 -0.0883,-18.34848 0,0 24.86153,-16.30985 24.86153,-16.30985 z"
       inkscape:connector-curvature="0" />
    <path
       sodipodi:type="spiral"
       style="fill:#00ffff;fill-rule:evenodd;stroke:#000000;stroke-width:0.26458332"
       id="path3912"
       sodipodi:cx="77.35051"
       sodipodi:cy="118.03425"
       sodipodi:expansion="1"
       sodipodi:revolution="3"
       sodipodi:radius="3.9405744"
       sodipodi:argument="-17.052898"
       sodipodi:t0="0"
       d="m 77.35051,118.03425 c -0.04425,0.19255 -0.281391,0.0354 -0.320041,-0.0735 -0.104739,-0.29511 0.201023,-0.54459 0.46712,-0.56654 0.475984,-0.0393 0.820476,0.41714 0.813043,0.8607 -0.01091,0.65094 -0.635175,1.10172 -1.254281,1.05954 -0.82517,-0.0562 -1.385095,-0.85375 -1.306046,-1.64786 0.09948,-0.9993 1.072565,-1.66952 2.041442,-1.55255 1.173441,0.14168 1.954562,1.2915 1.799049,2.43503 -0.183267,1.3476 -1.510501,2.23997 -2.828603,2.04555 -1.521801,-0.22448 -2.525651,-1.72956 -2.292051,-3.22219 0.265431,-1.69602 1.948647,-2.8115 3.615763,-2.53855 1.870253,0.30621 3.09748,2.16776 2.785054,4.00934 -0.346852,2.04451 -2.386902,3.38356 -4.402924,3.03156"
       transform="matrix(9.9392335,0,0,12.797188,-347.30225,-1448.0786)" />
    <path
       sodipodi:type="spiral"
       style="fill:#00ffff;fill-rule:evenodd;stroke:#000000;stroke-width:0.26458332"
       id="path3914"
       sodipodi:cx="45.735119"
       sodipodi:cy="127.47768"
       sodipodi:expansion="1"
       sodipodi:revolution="3"
       sodipodi:radius="3.819272"
       sodipodi:argument="-19.964094"
       sodipodi:t0="0"
       d="m 45.735119,127.47768 c 0.08437,-0.17191 0.273348,0.0289 0.285716,0.14022 0.03352,0.30165 -0.310224,0.46939 -0.566173,0.43121 -0.457832,-0.0683 -0.681879,-0.57522 -0.57669,-0.99212 0.154368,-0.61182 0.843205,-0.89901 1.418061,-0.72218 0.766192,0.23569 1.118019,1.11218 0.867665,1.84401 -0.315046,0.92093 -1.381602,1.33798 -2.26995,1.01315 -1.075908,-0.39341 -1.558484,-1.65127 -1.158639,-2.69589 0.471203,-1.23105 1.921101,-1.77934 3.121837,-1.30413 1.386297,0.54864 2.00041,2.19103 1.449615,3.54778 -0.62585,1.54163 -2.461038,2.22165 -3.973726,1.5951 -1.697008,-0.70289 -2.443001,-2.73109 -1.740589,-4.39967 0.77981,-1.85243 3.001192,-2.66444 4.825614,-1.88607"
       transform="matrix(9.9392355,0,0,12.797298,-347.30236,-1448.0922)" />
    <path
       sodipodi:type="star"
       style="fill:#ff0000;fill-opacity:0.67149758;stroke-width:0.26458332"
       id="path4804"
       sodipodi:sides="5"
       sodipodi:cx="544.19263"
       sodipodi:cy="12.209914"
       sodipodi:r1="134.18529"
       sodipodi:r2="37.861328"
       sodipodi:arg1="0.98591871"
       sodipodi:arg2="0.76454395"
       inkscape:flatsided="false"
       inkscape:rounded="0"
       inkscape:randomized="0"
       d="M 618.27597,124.09088 571.51708,38.417826 460.68052,117.24048 527.71114,46.2957 418.49596,-34.758591 l 88.1861,41.8267673 43.33787,-128.9169563 -12.52862,96.79514 135.99945,1.379229 -95.92921,17.99592 z"
       inkscape:transform-center-x="-3.1152554"
       inkscape:transform-center-y="6.5657195"
       transform="matrix(0.59308077,0.31998647,-0.30260933,0.56087302,79.992925,-161.98387)" />
  </g>
</svg>
